<svg width="116" height="24" viewBox="0 0 116 24" fill="none" xmlns="http://www.w3.org/2000/svg">
<path d="M7.53711 1H101.817C101.83 1.00025 101.852 1.00076 101.882 1.00195C101.943 1.00437 102.038 1.01005 102.161 1.02051C102.409 1.04145 102.77 1.08396 103.207 1.16992C104.085 1.34263 105.245 1.68594 106.396 2.36426C108.634 3.68274 111 6.35388 111 12.0059C111 17.6578 108.634 20.325 106.396 21.6406C105.245 22.3176 104.086 22.6603 103.208 22.832C102.771 22.9175 102.41 22.9598 102.162 22.9805C102.039 22.9908 101.944 22.9957 101.883 22.998C101.853 22.9992 101.831 22.9998 101.818 23H14.1104C12.1003 23 10.2856 21.7962 9.50391 19.9443L3.85254 6.55566C2.73958 3.91886 4.67515 1.00033 7.53711 1Z" fill="#D9D9D9" stroke="#1A2145" stroke-width="2"/>
<path d="M55 1.00023H103.031C103.031 1.00023 111 0.80427 111 11.902C111 22.9998 103.031 23 103.031 23H62.9368L55 1.00023Z" fill="#1A2145"/>
<path fill-rule="evenodd" clip-rule="evenodd" d="M23.9817 7.39609C24.8918 7.39609 25.7012 7.5784 26.4099 7.94303C27.1185 8.30767 27.6761 8.82614 28.0825 9.49843C28.4888 10.1707 28.6922 10.9683 28.6922 11.8913C28.6922 12.8143 28.4888 13.6119 28.0825 14.2842C27.6761 14.9565 27.1185 15.475 26.4099 15.8396C25.7012 16.2043 24.8918 16.3866 23.9817 16.3866C23.0716 16.3866 22.2621 16.2043 21.5534 15.8396C20.8448 15.475 20.2872 14.9565 19.8809 14.2842C19.4744 13.6119 19.2712 12.8143 19.2712 11.8913C19.2712 10.9683 19.4744 10.1707 19.8809 9.49843C20.2872 8.82614 20.8448 8.30767 21.5534 7.94303C22.2621 7.5784 23.0716 7.39609 23.9817 7.39609ZM23.9817 8.38742C23.3355 8.38742 22.7503 8.52133 22.2257 8.78911C21.7047 9.05689 21.2895 9.45144 20.9803 9.97275C20.6746 10.4941 20.5218 11.1336 20.5218 11.8913C20.5218 12.6491 20.6746 13.2886 20.9803 13.8099C21.2895 14.3312 21.7047 14.7258 22.2257 14.9936C22.7503 15.2614 23.3355 15.3952 23.9817 15.3952C24.6278 15.3952 25.2113 15.2614 25.7325 14.9936C26.2569 14.7258 26.6721 14.3312 26.9778 13.8099C27.287 13.2886 27.4415 12.6491 27.4415 11.8913C27.4415 11.1336 27.287 10.4941 26.9778 9.97275C26.6721 9.45144 26.2569 9.05689 25.7325 8.78911C25.2113 8.52133 24.6278 8.38742 23.9817 8.38742Z" fill="#1A2145"/>
<path fill-rule="evenodd" clip-rule="evenodd" d="M34.4708 7.51572C35.3044 7.51572 35.9889 7.6325 36.5237 7.8661C37.0587 8.09685 37.4547 8.41448 37.7117 8.81898C37.969 9.22351 38.0974 9.68358 38.0974 10.1992C38.0974 10.7148 37.969 11.172 37.7117 11.5708C37.4547 11.9697 37.0604 12.283 36.5291 12.5109C36.3964 12.5671 36.2546 12.6162 36.1035 12.6583L38.5143 16.2669H37.0136L34.7635 12.8442C34.6747 12.8471 34.5841 12.8485 34.4917 12.8485H32.1572V16.2669H30.8649V7.51572H34.4708ZM32.1572 11.8913H34.4499C35.0196 11.8913 35.4783 11.8229 35.8256 11.6862C36.1764 11.5495 36.43 11.3558 36.5864 11.1051C36.746 10.8516 36.826 10.5496 36.826 10.1992C36.826 9.84881 36.746 9.54256 36.5864 9.28047C36.4265 9.01841 36.1712 8.81614 35.8204 8.67371C35.4695 8.52843 35.0058 8.45579 34.429 8.45579H32.1572V11.8913Z" fill="#1A2145"/>
<path d="M46.6912 8.45579H41.5431V11.4127H46.3577V12.3528H41.5431V15.3269H46.7746V16.2669H40.2507V7.51572H46.6912V8.45579Z" fill="#1A2145"/>
<path fill-rule="evenodd" clip-rule="evenodd" d="M57.2741 16.2669H55.9193L54.8465 13.7886H50.531L49.4581 16.2669H48.1033L52.0217 7.51572H53.3556L57.2741 16.2669ZM50.9379 12.8485H54.4395L52.7303 8.90018H52.6469L50.9379 12.8485Z" fill="#1A2145"/>
<path fill-rule="evenodd" clip-rule="evenodd" d="M10.0704 7.51578H11.4252L12.498 9.99415H16.8136L17.8864 7.51578H19.2412L15.3228 16.267H13.9889L10.0704 7.51578ZM16.8136 9.99415H12.498L14.6142 14.8825H14.6975L16.8136 9.99415Z" fill="#1A2145"/>
<path d="M68.2959 9.69657C68.247 9.26487 68.0492 8.92973 67.7021 8.69116C67.3551 8.45261 66.9294 8.33332 66.4251 8.33332C66.0563 8.33332 65.7337 8.3958 65.4571 8.52077C65.1832 8.64573 64.9691 8.81754 64.8146 9.03624C64.6626 9.25492 64.5867 9.50344 64.5867 9.78177C64.5867 10.0147 64.6396 10.2149 64.7454 10.3825C64.8539 10.5472 64.9921 10.6849 65.1602 10.7957C65.3283 10.9036 65.5046 10.9931 65.6889 11.0641C65.8732 11.1322 66.0427 11.1876 66.1974 11.2302L67.0433 11.4688C67.2601 11.5284 67.5014 11.6108 67.7672 11.7159C68.0356 11.821 68.2919 11.9644 68.5359 12.1461C68.7826 12.3251 68.986 12.5551 69.1458 12.8363C69.3059 13.1175 69.3858 13.4625 69.3858 13.8715C69.3858 14.343 69.2679 14.769 69.032 15.1496C68.7989 15.5301 68.4573 15.8326 68.007 16.057C67.5598 16.2813 67.016 16.3935 66.3762 16.3935C65.7797 16.3935 65.2633 16.2927 64.8267 16.091C64.3929 15.8894 64.0513 15.6082 63.8018 15.2475C63.5551 14.8868 63.4155 14.4679 63.3829 13.9908H64.4241C64.4512 14.3202 64.557 14.5929 64.7414 14.8087C64.9285 15.0217 65.1642 15.1808 65.4491 15.2859C65.7364 15.3881 66.0454 15.4392 66.3762 15.4392C66.7613 15.4392 67.1069 15.3739 67.4134 15.2433C67.7197 15.1098 67.9624 14.9252 68.1414 14.6895C68.3202 14.4509 68.4098 14.1725 68.4098 13.8545C68.4098 13.5648 68.3325 13.3291 68.178 13.1473C68.0233 12.9655 67.82 12.8178 67.5679 12.7042C67.3156 12.5906 67.0433 12.4912 66.7504 12.406L65.7255 12.0993C65.0749 11.9033 64.5597 11.6236 64.1801 11.26C63.8004 10.8965 63.6106 10.4208 63.6106 9.83289C63.6106 9.34439 63.7368 8.91837 63.9888 8.55484C64.2438 8.18846 64.5853 7.90446 65.0138 7.70282C65.4448 7.49832 65.9262 7.39609 66.4577 7.39609C66.9944 7.39609 67.4717 7.4969 67.8892 7.69856C68.3066 7.89736 68.6375 8.17001 68.8815 8.51651C69.1282 8.86299 69.2583 9.25634 69.2719 9.69657H68.2959Z" fill="#D9D9D9"/>
<path d="M70.5886 8.45261V7.51538H76.8357V8.45261H74.2164V16.2401H73.2077V8.45261H70.5886Z" fill="#D9D9D9"/>
<path d="M83.8583 7.51538H84.8669V13.2921C84.8669 13.8886 84.7327 14.4211 84.4644 14.8897C84.1985 15.3555 83.823 15.7233 83.3377 15.9931C82.8523 16.26 82.283 16.3935 81.6296 16.3935C80.9762 16.3935 80.4067 16.26 79.9213 15.9931C79.436 15.7233 79.0592 15.3555 78.7908 14.8897C78.5251 14.4211 78.3923 13.8886 78.3923 13.2921V7.51538H79.4009V13.2069C79.4009 13.633 79.4903 14.0121 79.6693 14.3444C79.8483 14.6738 80.1031 14.9337 80.4339 15.124C80.7674 15.3115 81.1659 15.4052 81.6296 15.4052C82.0933 15.4052 82.4918 15.3115 82.8253 15.124C83.1588 14.9337 83.4136 14.6738 83.5899 14.3444C83.7688 14.0121 83.8583 13.633 83.8583 13.2069V7.51538Z" fill="#D9D9D9"/>
<path d="M89.4515 16.2401H86.8811V7.51538H89.5654C90.3733 7.51538 91.0647 7.69005 91.6396 8.03937C92.2144 8.38587 92.6549 8.88431 92.9614 9.53468C93.2677 10.1822 93.4209 10.9576 93.4209 11.8607C93.4209 12.7696 93.2664 13.552 92.9572 14.2081C92.6482 14.8613 92.1981 15.364 91.607 15.7162C91.0158 16.0655 90.2974 16.2401 89.4515 16.2401ZM87.8897 15.3029H89.3864C90.0751 15.3029 90.6459 15.1638 91.0987 14.8854C91.5514 14.6071 91.889 14.2109 92.1113 13.6969C92.3337 13.1828 92.4448 12.5708 92.4448 11.8607C92.4448 11.1564 92.335 10.55 92.1153 10.0416C91.8959 9.53042 91.5677 9.1385 91.1312 8.86583C90.6946 8.59035 90.151 8.45261 89.5002 8.45261H87.8897V15.3029Z" fill="#D9D9D9"/>
<path d="M96.1214 7.51538V16.2401H95.1128V7.51538H96.1214Z" fill="#D9D9D9"/>
<path d="M105.171 11.8777C105.171 12.7979 105.013 13.5932 104.696 14.2634C104.378 14.9337 103.943 15.4506 103.39 15.8141C102.837 16.1777 102.205 16.3594 101.495 16.3594C100.784 16.3594 100.153 16.1777 99.5997 15.8141C99.0465 15.4506 98.6114 14.9337 98.2941 14.2634C97.9769 13.5932 97.8184 12.7979 97.8184 11.8777C97.8184 10.9576 97.9769 10.1623 98.2941 9.49207C98.6114 8.82182 99.0465 8.30491 99.5997 7.94137C100.153 7.57786 100.784 7.39609 101.495 7.39609C102.205 7.39609 102.837 7.57786 103.39 7.94137C103.943 8.30491 104.378 8.82182 104.696 9.49207C105.013 10.1623 105.171 10.9576 105.171 11.8777ZM104.195 11.8777C104.195 11.1223 104.075 10.4847 103.834 9.96495C103.595 9.44522 103.271 9.05185 102.862 8.78489C102.455 8.51793 101.999 8.38444 101.495 8.38444C100.991 8.38444 100.534 8.51793 100.124 8.78489C99.7176 9.05185 99.3936 9.44522 99.1523 9.96495C98.9137 10.4847 98.7944 11.1223 98.7944 11.8777C98.7944 12.6332 98.9137 13.2708 99.1523 13.7906C99.3936 14.3103 99.7176 14.7037 100.124 14.9706C100.534 15.2376 100.991 15.3711 101.495 15.3711C101.999 15.3711 102.455 15.2376 102.862 14.9706C103.271 14.7037 103.595 14.3103 103.834 13.7906C104.075 13.2708 104.195 12.6332 104.195 11.8777Z" fill="#D9D9D9"/>
</svg>
